<svg xmlns="http://www.w3.org/2000/svg" viewBox="0 0 750 422" width="750" height="422">
<defs>
  <linearGradient id="bg6" x1="0" y1="0" x2="1" y2="1">
    <stop offset="0%" stop-color="#12161F"/>
    <stop offset="100%" stop-color="#0B0E14"/>
  </linearGradient>
</defs>
<rect width="750" height="422" fill="url(#bg6)"/>
<line x1="0" y1="0" x2="0" y2="422" stroke="#232838" stroke-width="1" opacity="0.35"/>
<line x1="38" y1="0" x2="38" y2="422" stroke="#232838" stroke-width="1" opacity="0.35"/>
<line x1="76" y1="0" x2="76" y2="422" stroke="#232838" stroke-width="1" opacity="0.35"/>
<line x1="114" y1="0" x2="114" y2="422" stroke="#232838" stroke-width="1" opacity="0.35"/>
<line x1="152" y1="0" x2="152" y2="422" stroke="#232838" stroke-width="1" opacity="0.35"/>
<line x1="190" y1="0" x2="190" y2="422" stroke="#232838" stroke-width="1" opacity="0.35"/>
<line x1="228" y1="0" x2="228" y2="422" stroke="#232838" stroke-width="1" opacity="0.35"/>
<line x1="266" y1="0" x2="266" y2="422" stroke="#232838" stroke-width="1" opacity="0.35"/>
<line x1="304" y1="0" x2="304" y2="422" stroke="#232838" stroke-width="1" opacity="0.35"/>
<line x1="342" y1="0" x2="342" y2="422" stroke="#232838" stroke-width="1" opacity="0.35"/>
<line x1="380" y1="0" x2="380" y2="422" stroke="#232838" stroke-width="1" opacity="0.35"/>
<line x1="418" y1="0" x2="418" y2="422" stroke="#232838" stroke-width="1" opacity="0.35"/>
<line x1="456" y1="0" x2="456" y2="422" stroke="#232838" stroke-width="1" opacity="0.35"/>
<line x1="494" y1="0" x2="494" y2="422" stroke="#232838" stroke-width="1" opacity="0.35"/>
<line x1="532" y1="0" x2="532" y2="422" stroke="#232838" stroke-width="1" opacity="0.35"/>
<line x1="570" y1="0" x2="570" y2="422" stroke="#232838" stroke-width="1" opacity="0.35"/>
<line x1="608" y1="0" x2="608" y2="422" stroke="#232838" stroke-width="1" opacity="0.35"/>
<line x1="646" y1="0" x2="646" y2="422" stroke="#232838" stroke-width="1" opacity="0.35"/>
<line x1="684" y1="0" x2="684" y2="422" stroke="#232838" stroke-width="1" opacity="0.35"/>
<line x1="722" y1="0" x2="722" y2="422" stroke="#232838" stroke-width="1" opacity="0.35"/>
<line x1="0" y1="0" x2="750" y2="0" stroke="#232838" stroke-width="1" opacity="0.35"/>
<line x1="0" y1="38" x2="750" y2="38" stroke="#232838" stroke-width="1" opacity="0.35"/>
<line x1="0" y1="76" x2="750" y2="76" stroke="#232838" stroke-width="1" opacity="0.35"/>
<line x1="0" y1="114" x2="750" y2="114" stroke="#232838" stroke-width="1" opacity="0.35"/>
<line x1="0" y1="152" x2="750" y2="152" stroke="#232838" stroke-width="1" opacity="0.35"/>
<line x1="0" y1="190" x2="750" y2="190" stroke="#232838" stroke-width="1" opacity="0.35"/>
<line x1="0" y1="228" x2="750" y2="228" stroke="#232838" stroke-width="1" opacity="0.35"/>
<line x1="0" y1="266" x2="750" y2="266" stroke="#232838" stroke-width="1" opacity="0.35"/>
<line x1="0" y1="304" x2="750" y2="304" stroke="#232838" stroke-width="1" opacity="0.35"/>
<line x1="0" y1="342" x2="750" y2="342" stroke="#232838" stroke-width="1" opacity="0.35"/>
<line x1="0" y1="380" x2="750" y2="380" stroke="#232838" stroke-width="1" opacity="0.35"/>
<line x1="0" y1="418" x2="750" y2="418" stroke="#232838" stroke-width="1" opacity="0.35"/><rect x="55" y="190" width="105" height="46" fill="#161B22" opacity="1" rx="6"/><rect x="55" y="190" width="105" height="46" fill="none" stroke="#3FA7A1" stroke-width="1.5" rx="6" opacity="0.8"/><text x="107.5" y="217.0" fill="#3FA7A1" font-size="11" font-family="monospace" text-anchor="middle" letter-spacing="1">ingest</text><rect x="185" y="190" width="105" height="46" fill="#161B22" opacity="1" rx="6"/><rect x="185" y="190" width="105" height="46" fill="none" stroke="#E8A33D" stroke-width="1.5" rx="6" opacity="0.8"/><text x="237.5" y="217.0" fill="#E8A33D" font-size="11" font-family="monospace" text-anchor="middle" letter-spacing="1">features</text><line x1="160" y1="213.0" x2="185" y2="213.0" stroke="#3A4155" stroke-width="1.5"/><path d="M177,208.0 L185,213.0 L177,218.0" fill="none" stroke="#3A4155" stroke-width="1.5"/><rect x="315" y="190" width="105" height="46" fill="#161B22" opacity="1" rx="6"/><rect x="315" y="190" width="105" height="46" fill="none" stroke="#3FA7A1" stroke-width="1.5" rx="6" opacity="0.8"/><text x="367.5" y="217.0" fill="#3FA7A1" font-size="11" font-family="monospace" text-anchor="middle" letter-spacing="1">train</text><line x1="290" y1="213.0" x2="315" y2="213.0" stroke="#3A4155" stroke-width="1.5"/><path d="M307,208.0 L315,213.0 L307,218.0" fill="none" stroke="#3A4155" stroke-width="1.5"/><rect x="445" y="190" width="105" height="46" fill="#161B22" opacity="1" rx="6"/><rect x="445" y="190" width="105" height="46" fill="none" stroke="#E8A33D" stroke-width="1.5" rx="6" opacity="0.8"/><text x="497.5" y="217.0" fill="#E8A33D" font-size="11" font-family="monospace" text-anchor="middle" letter-spacing="1">evaluate</text><line x1="420" y1="213.0" x2="445" y2="213.0" stroke="#3A4155" stroke-width="1.5"/><path d="M437,208.0 L445,213.0 L437,218.0" fill="none" stroke="#3A4155" stroke-width="1.5"/><rect x="575" y="190" width="105" height="46" fill="#161B22" opacity="1" rx="6"/><rect x="575" y="190" width="105" height="46" fill="none" stroke="#3FA7A1" stroke-width="1.5" rx="6" opacity="0.8"/><text x="627.5" y="217.0" fill="#3FA7A1" font-size="11" font-family="monospace" text-anchor="middle" letter-spacing="1">deploy</text><line x1="550" y1="213.0" x2="575" y2="213.0" stroke="#3A4155" stroke-width="1.5"/><path d="M567,208.0 L575,213.0 L567,218.0" fill="none" stroke="#3A4155" stroke-width="1.5"/><text x="40" y="40" fill="#E8A33D" font-size="14" font-family="monospace" text-anchor="start" letter-spacing="1">// decodelabs.pipeline.i</text></svg>