<svg xmlns="http://www.w3.org/2000/svg" viewBox="0 0 750 422" width="750" height="422">
<defs>
  <linearGradient id="bg10" x1="0" y1="0" x2="1" y2="1">
    <stop offset="0%" stop-color="#12161F"/>
    <stop offset="100%" stop-color="#0B0E14"/>
  </linearGradient>
</defs>
<rect width="750" height="422" fill="url(#bg10)"/>
<line x1="0" y1="0" x2="0" y2="422" stroke="#232838" stroke-width="1" opacity="0.35"/>
<line x1="38" y1="0" x2="38" y2="422" stroke="#232838" stroke-width="1" opacity="0.35"/>
<line x1="76" y1="0" x2="76" y2="422" stroke="#232838" stroke-width="1" opacity="0.35"/>
<line x1="114" y1="0" x2="114" y2="422" stroke="#232838" stroke-width="1" opacity="0.35"/>
<line x1="152" y1="0" x2="152" y2="422" stroke="#232838" stroke-width="1" opacity="0.35"/>
<line x1="190" y1="0" x2="190" y2="422" stroke="#232838" stroke-width="1" opacity="0.35"/>
<line x1="228" y1="0" x2="228" y2="422" stroke="#232838" stroke-width="1" opacity="0.35"/>
<line x1="266" y1="0" x2="266" y2="422" stroke="#232838" stroke-width="1" opacity="0.35"/>
<line x1="304" y1="0" x2="304" y2="422" stroke="#232838" stroke-width="1" opacity="0.35"/>
<line x1="342" y1="0" x2="342" y2="422" stroke="#232838" stroke-width="1" opacity="0.35"/>
<line x1="380" y1="0" x2="380" y2="422" stroke="#232838" stroke-width="1" opacity="0.35"/>
<line x1="418" y1="0" x2="418" y2="422" stroke="#232838" stroke-width="1" opacity="0.35"/>
<line x1="456" y1="0" x2="456" y2="422" stroke="#232838" stroke-width="1" opacity="0.35"/>
<line x1="494" y1="0" x2="494" y2="422" stroke="#232838" stroke-width="1" opacity="0.35"/>
<line x1="532" y1="0" x2="532" y2="422" stroke="#232838" stroke-width="1" opacity="0.35"/>
<line x1="570" y1="0" x2="570" y2="422" stroke="#232838" stroke-width="1" opacity="0.35"/>
<line x1="608" y1="0" x2="608" y2="422" stroke="#232838" stroke-width="1" opacity="0.35"/>
<line x1="646" y1="0" x2="646" y2="422" stroke="#232838" stroke-width="1" opacity="0.35"/>
<line x1="684" y1="0" x2="684" y2="422" stroke="#232838" stroke-width="1" opacity="0.35"/>
<line x1="722" y1="0" x2="722" y2="422" stroke="#232838" stroke-width="1" opacity="0.35"/>
<line x1="0" y1="0" x2="750" y2="0" stroke="#232838" stroke-width="1" opacity="0.35"/>
<line x1="0" y1="38" x2="750" y2="38" stroke="#232838" stroke-width="1" opacity="0.35"/>
<line x1="0" y1="76" x2="750" y2="76" stroke="#232838" stroke-width="1" opacity="0.35"/>
<line x1="0" y1="114" x2="750" y2="114" stroke="#232838" stroke-width="1" opacity="0.35"/>
<line x1="0" y1="152" x2="750" y2="152" stroke="#232838" stroke-width="1" opacity="0.35"/>
<line x1="0" y1="190" x2="750" y2="190" stroke="#232838" stroke-width="1" opacity="0.35"/>
<line x1="0" y1="228" x2="750" y2="228" stroke="#232838" stroke-width="1" opacity="0.35"/>
<line x1="0" y1="266" x2="750" y2="266" stroke="#232838" stroke-width="1" opacity="0.35"/>
<line x1="0" y1="304" x2="750" y2="304" stroke="#232838" stroke-width="1" opacity="0.35"/>
<line x1="0" y1="342" x2="750" y2="342" stroke="#232838" stroke-width="1" opacity="0.35"/>
<line x1="0" y1="380" x2="750" y2="380" stroke="#232838" stroke-width="1" opacity="0.35"/>
<line x1="0" y1="418" x2="750" y2="418" stroke="#232838" stroke-width="1" opacity="0.35"/><rect x="50" y="70" width="650" height="300" fill="#0E1119" opacity="1" rx="8"/><rect x="50" y="70" width="650" height="300" fill="none" stroke="#232838" stroke-width="1.5" rx="8"/><circle cx="75" cy="92" r="5" fill="#E2685A" opacity="1"/><circle cx="93" cy="92" r="5" fill="#E8A33D" opacity="1"/><circle cx="111" cy="92" r="5" fill="#3FA7A1" opacity="1"/><text x="70" y="130" fill="#3FA7A1" font-size="13" font-family="monospace" text-anchor="start" letter-spacing="1">import automate</text><text x="88" y="156" fill="#E8A33D" font-size="13" font-family="monospace" text-anchor="start" letter-spacing="1">def process(data):</text><text x="106" y="182" fill="#B9C2D0" font-size="13" font-family="monospace" text-anchor="start" letter-spacing="1">automate.run(files)</text><text x="88" y="208" fill="#E8A33D" font-size="13" font-family="monospace" text-anchor="start" letter-spacing="1">api.fetch(endpoint)</text><text x="106" y="234" fill="#B9C2D0" font-size="13" font-family="monospace" text-anchor="start" letter-spacing="1">return result</text><text x="40" y="40" fill="#E8A33D" font-size="14" font-family="monospace" text-anchor="start" letter-spacing="1">// flexisaf.python</text></svg>